<svg width="37" height="37" viewBox="0 0 37 37" fill="none" xmlns="http://www.w3.org/2000/svg">
<path d="M35.8448 18.7928C35.8448 28.534 27.9481 36.4308 18.2069 36.4308C8.46574 36.4308 0.568966 28.534 0.568966 18.7928C0.568966 9.05167 8.46574 1.1549 18.2069 1.1549C27.9481 1.1549 35.8448 9.05167 35.8448 18.7928Z" fill="white" stroke="white" stroke-width="1.13793"/>
<path d="M19.8995 15.1784C19.7492 15.1784 19.621 15.2317 19.5148 15.3384C19.4087 15.4452 19.3557 15.5741 19.3557 15.7253V17.0191C19.3557 17.0547 19.3667 17.0858 19.3888 17.1125C19.4109 17.1391 19.4441 17.1525 19.4883 17.1525H21.4781C21.6285 17.1525 21.7567 17.2058 21.8628 17.3125C21.969 17.4192 22.022 17.5482 22.022 17.6993V19.0465C22.022 19.1977 21.969 19.3266 21.8628 19.4333C21.7567 19.54 21.6285 19.5934 21.4781 19.5934H19.5016C19.4574 19.5934 19.4242 19.6067 19.4021 19.6334C19.38 19.6601 19.3689 19.6957 19.3689 19.7401V24.3152C19.3689 24.4663 19.3159 24.5953 19.2097 24.702C19.1036 24.8087 18.9754 24.8621 18.825 24.8621H17.472C17.3305 24.8621 17.2044 24.8087 17.0939 24.702C16.9833 24.5953 16.9281 24.4663 16.9281 24.3152V19.7401C16.9281 19.6957 16.917 19.6601 16.8949 19.6334C16.8728 19.6067 16.8396 19.5934 16.7954 19.5934H15.2831C15.1328 19.5934 15.0046 19.54 14.8984 19.4333C14.7923 19.3266 14.7393 19.1977 14.7393 19.0465V17.6993C14.7393 17.5482 14.7923 17.4192 14.8984 17.3125C15.0046 17.2058 15.1328 17.1525 15.2831 17.1525H16.7954C16.8396 17.1525 16.8728 17.1391 16.8949 17.1125C16.917 17.0858 16.9281 17.0547 16.9281 17.0191V15.165C16.9281 14.4892 17.1646 13.9135 17.6378 13.4377C18.1109 12.962 18.6835 12.7241 19.3557 12.7241H21.4649C21.6152 12.7241 21.7434 12.7775 21.8496 12.8842C21.9557 12.9909 22.0087 13.1198 22.0087 13.271V14.6315C22.0087 14.7827 21.9557 14.9116 21.8496 15.0183C21.7434 15.125 21.6152 15.1784 21.4649 15.1784H19.8995Z" fill="#0C111A"/>
</svg>
