<svg width="37" height="37" viewBox="0 0 37 37" fill="none" xmlns="http://www.w3.org/2000/svg">
<path d="M35.9122 18.7928C35.9122 28.534 28.0154 36.4308 18.2743 36.4308C8.53312 36.4308 0.636348 28.534 0.636348 18.7928C0.636348 9.05167 8.53312 1.1549 18.2743 1.1549C28.0154 1.1549 35.9122 9.05167 35.9122 18.7928Z" fill="white" stroke="white" stroke-width="1.13793"/>
<path d="M24.6943 16.6612C24.7035 16.9922 24.7104 17.2864 24.715 17.5439C24.7196 17.8014 24.7219 18.3439 24.7219 19.1715C24.7219 19.9991 24.7196 20.5416 24.715 20.7991C24.7104 21.0566 24.7035 21.3462 24.6943 21.6681C24.6759 21.9991 24.6415 22.2795 24.5909 22.5094C24.5403 22.7393 24.4782 22.9508 24.4047 23.1439C24.3311 23.3462 24.2392 23.5347 24.1288 23.7094C24.0185 23.8841 23.8759 24.0543 23.7012 24.2198C23.5357 24.3945 23.3656 24.537 23.1909 24.6474C23.0162 24.7577 22.8277 24.8497 22.6254 24.9232C22.4323 24.9968 22.2208 25.0589 21.9909 25.1094C21.761 25.16 21.4851 25.1945 21.1633 25.2129C20.8323 25.2221 20.538 25.229 20.2805 25.2336C20.0231 25.2382 19.4805 25.2405 18.653 25.2405C17.8254 25.2405 17.2828 25.2382 17.0254 25.2336C16.7679 25.229 16.4782 25.2221 16.1564 25.2129C15.8254 25.1945 15.5449 25.16 15.315 25.1094C15.0851 25.0589 14.8736 24.9968 14.6805 24.9232C14.4782 24.8497 14.2897 24.7577 14.115 24.6474C13.9403 24.537 13.7702 24.3945 13.6047 24.2198C13.43 24.0543 13.2874 23.8841 13.1771 23.7094C13.0667 23.5347 12.9748 23.3462 12.9012 23.1439C12.8277 22.9508 12.7656 22.7393 12.715 22.5094C12.6644 22.2795 12.63 22.0037 12.6116 21.6818C12.6024 21.3508 12.5955 21.0566 12.5909 20.7991C12.5863 20.5416 12.584 19.9991 12.584 19.1715C12.584 18.3439 12.5863 17.8014 12.5909 17.5439C12.5955 17.2864 12.6024 16.9968 12.6116 16.675C12.63 16.3439 12.6644 16.0635 12.715 15.8336C12.7656 15.6037 12.8277 15.3922 12.9012 15.1991C12.9748 14.9968 13.0667 14.8083 13.1771 14.6336C13.2874 14.4589 13.43 14.2887 13.6047 14.1232C13.7702 13.9485 13.9403 13.806 14.115 13.6956C14.2897 13.5853 14.4782 13.4933 14.6805 13.4198C14.8736 13.3462 15.0851 13.2841 15.315 13.2336C15.5449 13.183 15.8208 13.1485 16.1426 13.1301C16.4736 13.1209 16.7679 13.114 17.0254 13.1094C17.2828 13.1048 17.8254 13.1025 18.653 13.1025C19.4805 13.1025 20.0231 13.1048 20.2805 13.1094C20.538 13.114 20.8277 13.1209 21.1495 13.1301C21.4805 13.1485 21.761 13.183 21.9909 13.2336C22.2208 13.2841 22.4323 13.3462 22.6254 13.4198C22.8277 13.4933 23.0162 13.5853 23.1909 13.6956C23.3656 13.806 23.5357 13.9485 23.7012 14.1232C23.8759 14.2887 24.0185 14.4589 24.1288 14.6336C24.2392 14.8083 24.3311 14.9968 24.4047 15.1991C24.4782 15.3922 24.5403 15.6037 24.5909 15.8336C24.6415 16.0635 24.6759 16.3393 24.6943 16.6612ZM23.5909 21.6267C23.6093 21.3048 23.6208 21.0175 23.6254 20.7646C23.63 20.5117 23.6323 19.9807 23.6323 19.1715C23.6323 18.3623 23.63 17.8313 23.6254 17.5784C23.6208 17.3255 23.6093 17.0382 23.5909 16.7163C23.5817 16.4221 23.5564 16.1876 23.515 16.0129C23.4736 15.8382 23.43 15.6956 23.384 15.5853C23.3288 15.4474 23.2667 15.3232 23.1978 15.2129C23.1288 15.1025 23.0392 14.9968 22.9288 14.8956C22.8277 14.7853 22.7219 14.6956 22.6116 14.6267C22.5012 14.5577 22.3771 14.4956 22.2392 14.4405C22.1288 14.3945 21.9863 14.3508 21.8116 14.3094C21.6369 14.2681 21.4024 14.2428 21.1081 14.2336C20.7863 14.2152 20.4989 14.2037 20.2461 14.1991C19.9932 14.1945 19.4621 14.1922 18.653 14.1922C17.8438 14.1922 17.3127 14.1945 17.0598 14.1991C16.807 14.2037 16.5196 14.2152 16.1978 14.2336C15.9035 14.2428 15.669 14.2681 15.4943 14.3094C15.3196 14.3508 15.1771 14.3945 15.0667 14.4405C14.9288 14.4956 14.8047 14.5577 14.6943 14.6267C14.584 14.6956 14.4782 14.7853 14.3771 14.8956C14.2667 14.9968 14.1771 15.1025 14.1081 15.2129C14.0392 15.3232 13.9771 15.4474 13.9219 15.5853C13.8759 15.6956 13.8323 15.8382 13.7909 16.0129C13.7495 16.1876 13.7242 16.4221 13.715 16.7163C13.6966 17.0382 13.6851 17.3255 13.6805 17.5784C13.6759 17.8313 13.6736 18.3623 13.6736 19.1715C13.6736 19.9807 13.6759 20.5117 13.6805 20.7646C13.6851 21.0175 13.6966 21.3048 13.715 21.6267C13.7242 21.9209 13.7495 22.1554 13.7909 22.3301C13.8323 22.5048 13.8759 22.6474 13.9219 22.7577C13.9771 22.8956 14.0392 23.0198 14.1081 23.1301C14.1771 23.2405 14.2667 23.3462 14.3771 23.4474C14.4782 23.5577 14.584 23.6474 14.6943 23.7163C14.8047 23.7853 14.9288 23.8474 15.0667 23.9025C15.1771 23.9485 15.3196 23.9922 15.4943 24.0336C15.669 24.075 15.9035 24.1002 16.1978 24.1094C16.5196 24.1278 16.807 24.1393 17.0598 24.1439C17.3127 24.1485 17.8438 24.1508 18.653 24.1508C19.4621 24.1508 19.9932 24.1485 20.2461 24.1439C20.4989 24.1393 20.7863 24.1278 21.1081 24.1094C21.4024 24.1002 21.6369 24.075 21.8116 24.0336C21.9863 23.9922 22.1288 23.9485 22.2392 23.9025C22.3771 23.8474 22.5012 23.7853 22.6116 23.7163C22.7219 23.6474 22.8277 23.5577 22.9288 23.4474C23.0392 23.3462 23.1288 23.2405 23.1978 23.1301C23.2667 23.0198 23.3288 22.8956 23.384 22.7577C23.43 22.6474 23.4736 22.5048 23.515 22.3301C23.5564 22.1554 23.5817 21.9209 23.5909 21.6267ZM18.653 16.0543C19.0851 16.0543 19.4897 16.137 19.8667 16.3025C20.2438 16.4589 20.5748 16.6795 20.8598 16.9646C21.1449 17.2497 21.3656 17.5807 21.5219 17.9577C21.6874 18.3347 21.7702 18.7393 21.7702 19.1715C21.7702 19.6037 21.6874 20.0083 21.5219 20.3853C21.3656 20.7623 21.1449 21.0933 20.8598 21.3784C20.5748 21.6635 20.2438 21.8841 19.8667 22.0405C19.4897 22.206 19.0851 22.2887 18.653 22.2887C18.2208 22.2887 17.8162 22.206 17.4392 22.0405C17.0621 21.8841 16.7311 21.6635 16.4461 21.3784C16.161 21.0933 15.9403 20.7623 15.784 20.3853C15.6185 20.0083 15.5357 19.6037 15.5357 19.1715C15.5357 18.7393 15.6185 18.3347 15.784 17.9577C15.9403 17.5807 16.161 17.2497 16.4461 16.9646C16.7311 16.6795 17.0621 16.4589 17.4392 16.3025C17.8162 16.137 18.2208 16.0543 18.653 16.0543ZM18.653 21.1991C19.2139 21.1991 19.692 21.0014 20.0874 20.606C20.4828 20.2106 20.6805 19.7324 20.6805 19.1715C20.6805 18.6106 20.4828 18.1324 20.0874 17.737C19.692 17.3416 19.2139 17.1439 18.653 17.1439C18.092 17.1439 17.6139 17.3416 17.2185 17.737C16.8231 18.1324 16.6254 18.6106 16.6254 19.1715C16.6254 19.7324 16.8231 20.2106 17.2185 20.606C17.6139 21.0014 18.092 21.1991 18.653 21.1991ZM22.5978 15.7646C22.6438 15.9577 22.6139 16.1393 22.5081 16.3094C22.4024 16.4796 22.253 16.5876 22.0598 16.6336C21.8667 16.6796 21.6851 16.6497 21.515 16.5439C21.3449 16.4382 21.2369 16.2887 21.1909 16.0956C21.1449 15.9025 21.1748 15.7209 21.2805 15.5508C21.3863 15.3807 21.5357 15.2727 21.7288 15.2267C21.9219 15.1715 22.1035 15.1991 22.2736 15.3094C22.4438 15.4198 22.5518 15.5715 22.5978 15.7646Z" fill="#0C111A"/>
</svg>
