<svg width="333" height="30" viewBox="0 0 333 30" fill="none" xmlns="http://www.w3.org/2000/svg">
<path d="M11.3675 0.571325C10.8594 0.682825 10.3404 0.801756 9.84312 0.942987C9.34579 1.08422 8.81602 1.22552 8.31869 1.38162C7.82135 1.53771 7.33485 1.73096 6.8159 1.91679C6.29694 2.10262 5.5185 2.53375 4.88062 2.84595C3.36337 3.7533 2.05475 4.81339 0.999284 5.9902L0.0586851 6.964C-0.103488 7.0532 0.112748 7.10525 0.19924 7.16471L0.534396 7.35055L1.19388 7.72221L3.91841 9.20886L5.29147 9.95219C5.77814 10.1991 6.29134 10.4202 6.82669 10.6137C7.47538 10.8738 8.11328 11.1191 8.74035 11.357C9.85023 11.7826 10.9905 12.1696 12.1568 12.5166C17.0977 14.0627 22.9035 14.7466 27.5849 15.3413C37.5747 16.5901 47.5646 16.6867 57.3166 16.828C62.1926 16.8874 67.047 16.9171 71.7932 17.0955C76.5395 17.2739 81.3399 17.5118 86.0861 17.8389C95.2392 18.514 104.323 19.5739 113.288 21.0128C117.45 21.6966 121.602 22.4475 125.71 23.3023C125.667 23.7106 125.667 24.1205 125.71 24.5288C125.911 24.9861 126.199 25.4234 126.565 25.8296L126.51 25.7701C126.96 26.2931 127.529 26.7626 128.197 27.1601L129.462 27.7771C129.894 27.9778 130.37 28.1636 130.824 28.3569C131.306 28.5554 131.808 28.7293 132.327 28.8772L133.095 29.1225L133.949 29.3158C134.499 29.4536 135.063 29.5654 135.635 29.6503L136.468 29.7766C136.72 29.8223 136.977 29.857 137.236 29.8807C138.897 30.0556 140.589 30.0381 142.241 29.8287C142.706 29.7618 143.203 29.6503 143.679 29.5462C144.227 29.4014 144.752 29.2196 145.247 29.0035C146.486 28.4559 147.408 27.6277 147.852 26.6621C148.011 26.2442 148.102 25.8153 148.123 25.3835V25.2126L148.015 24.5808L147.917 24.2017L147.863 24.0084L147.755 23.7483L147.625 23.4881C147.602 23.4396 147.573 23.3923 147.539 23.3468L147.398 23.1313C147.29 22.9933 147.171 22.8593 147.042 22.7299C146.816 22.5139 146.547 22.3211 146.242 22.1575L146.155 22.113L146.652 22.0089L150.199 21.2656C152.577 20.8122 154.977 20.3958 157.377 20.0019C167.097 18.5303 176.951 17.5171 186.871 16.9691C200.072 16.2258 213.403 16.1292 226.788 16.1217C240.172 16.1143 253.6 16.0772 267.017 15.8616C276.185 15.7129 285.397 15.7427 294.641 15.8616L308.49 16.0251L315.421 16.1069C316.502 16.1069 317.799 16.1069 319.032 16.1069C320.294 16.0821 321.554 16.0102 322.805 15.8914C324.806 15.7269 326.745 15.3085 328.524 14.6574C330.049 14.1211 331.328 13.3056 332.222 12.301C332.553 11.9156 332.794 11.4967 332.935 11.0597C333.022 10.7254 333.022 10.3831 332.935 10.0487C332.883 9.81387 332.741 9.59269 332.525 9.4074C332.308 9.2221 332.025 9.07929 331.703 8.99327C331.418 8.93847 331.118 8.93284 330.829 8.97693C330.541 9.02102 330.273 9.11344 330.049 9.24597C329.454 9.46154 328.967 9.78113 328.254 10.0487C326.562 10.7157 324.702 11.157 322.772 11.3496C321.219 11.5091 319.651 11.5887 318.08 11.5875C316.512 11.5875 314.664 11.5429 312.945 11.5206L302.458 11.3868C295.459 11.3075 288.46 11.2505 281.461 11.2158C267.406 11.1489 253.449 11.1489 239.437 11.1637C233.372 11.1637 225.609 11.1637 218.7 11.1637C211.792 11.1637 205.662 11.253 202.97 11.3273C201.889 11.3273 200.807 11.4536 200.061 11.4611C189.985 11.6328 179.933 12.2261 169.962 13.2376C167.41 13.4681 164.859 13.8248 162.307 14.137C159.756 14.4492 157.215 14.8804 154.675 15.2669C149.628 16.0855 144.645 17.0778 139.744 18.2402L138.036 18.6565L137.171 18.8721L136.749 18.9761L136.079 19.1619L133.311 19.9052L130.651 19.2958C126.759 18.4186 122.824 17.6084 118.856 16.8874C103.595 14.0774 87.918 12.4713 72.1284 12.1003C64.5603 11.9294 57.0679 12.1003 49.6836 12.026C42.4021 12.0845 35.1261 11.7265 27.9308 10.9557C24.4271 10.5529 20.9825 9.93594 17.6382 9.11222C15.9903 8.70591 14.3737 8.24197 12.7947 7.72221C12.0162 7.44718 11.2703 7.14239 10.5026 6.85993L9.87555 6.62945L9.55122 6.48082C9.37823 6.39906 9.20526 6.31732 9.05389 6.23556C8.90253 6.15379 9.05388 6.13886 9.10794 6.0794C9.1715 6.01983 9.24398 5.96504 9.32418 5.91589C9.46459 5.81826 9.61645 5.72877 9.77825 5.6483L10.0161 5.53678L10.1242 5.48479L10.4594 5.35095C12.5573 4.53565 14.8311 3.95604 17.195 3.63391C17.2599 3.63391 17.4004 3.63391 17.4653 3.63391C18.3086 3.55958 18.6437 3.4555 18.8708 3.24737C19.0978 3.03924 19.1627 2.80878 19.5302 2.66011C21.2277 2.06545 21.9737 1.58228 20.7195 0.883554C19.7348 0.415648 18.592 0.129028 17.4004 0.051033C15.358 -0.0978909 13.2932 0.080164 11.3675 0.571325Z" fill="#C63B3A"/>
</svg>
