<svg width="77" height="14" viewBox="0 0 77 14" fill="none" xmlns="http://www.w3.org/2000/svg">
<path d="M10.9724 1.30566H0.658345C0.329172 1.30566 0.027431 1.57763 0.027431 1.93119V3.07344C0.027431 3.427 0.329172 3.72616 0.658345 3.72616H10.9724C11.329 3.72616 11.6033 3.427 11.6308 3.07344V1.95838C11.6308 1.57763 11.329 1.30566 10.9724 1.30566ZM10.9724 7.72406H0.658345C0.493758 7.72406 0.329172 7.80565 0.192017 7.91443C0.0822931 8.02322 0 8.1864 0 8.37677V9.51903C0 9.87259 0.301741 10.1718 0.630914 10.1718H10.945C11.3016 10.1718 11.5759 9.89978 11.6033 9.51903V8.37677C11.6308 7.99602 11.329 7.72406 10.9724 7.72406ZM6.47372 10.9061H0.658345C0.493758 10.9061 0.329172 10.9605 0.219448 11.0964C0.109724 11.2052 0.027431 11.3684 0.027431 11.5588V12.701C0.027431 13.0546 0.329172 13.3537 0.658345 13.3537H6.44629C6.80289 13.3537 7.07721 13.0546 7.07721 12.701V11.5316C7.10464 11.2052 6.83033 10.9061 6.47372 10.9061ZM11.6308 4.51486H0.658345C0.493758 4.51486 0.329172 4.56925 0.219448 4.70524C0.109724 4.81402 0.027431 4.9772 0.027431 5.16758V6.30984C0.027431 6.66339 0.329172 6.96255 0.658345 6.96255H11.6033C11.9599 6.96255 12.2342 6.66339 12.2342 6.30984V5.16758C12.2617 4.78683 11.9874 4.51486 11.6308 4.51486Z" fill="#00C3F7"/>
<path d="M23.618 3.88911C23.2888 3.56275 22.9322 3.31798 22.4933 3.12761C22.0818 2.93723 21.6155 2.85564 21.1492 2.85564C20.7103 2.85564 20.2714 2.93723 19.8599 3.12761C19.5856 3.26359 19.3387 3.42677 19.1467 3.64434V3.45397C19.1467 3.34518 19.0919 3.26359 19.037 3.182C18.9547 3.10041 18.8724 3.04602 18.7627 3.04602H17.3088C17.1991 3.04602 17.0894 3.10041 17.0345 3.182C16.9522 3.26359 16.9248 3.34518 16.9248 3.45397V12.9728C16.9248 13.0816 16.9797 13.1631 17.0345 13.2447C17.1168 13.3263 17.1991 13.3535 17.3088 13.3535H18.7627C18.8724 13.3535 18.9547 13.3263 19.037 13.2447C19.1193 13.1631 19.1467 13.0816 19.1467 12.9728V9.70918C19.3662 9.92675 19.613 10.1171 19.9148 10.1987C20.2988 10.3347 20.7103 10.4163 21.0943 10.4163C21.5606 10.4163 22.027 10.3347 22.4384 10.1443C22.8773 9.98114 23.2614 9.70918 23.5631 9.38282C23.8923 9.02926 24.1666 8.62132 24.3312 8.18617C24.5232 7.69663 24.6329 7.1527 24.6055 6.63597C24.6055 6.09203 24.5232 5.5753 24.3312 5.05856C24.2215 4.65062 23.9471 4.24267 23.618 3.88911ZM22.3287 7.34308C22.2464 7.53345 22.1367 7.72383 21.9995 7.88701C21.6978 8.21337 21.2863 8.37655 20.8474 8.37655C20.628 8.37655 20.4085 8.32215 20.2165 8.24056C20.0245 8.15897 19.8325 8.02299 19.6953 7.88701C19.5582 7.72383 19.421 7.53345 19.3387 7.34308C19.1741 6.90793 19.1741 6.44559 19.3387 6.01044C19.421 5.82007 19.5308 5.62969 19.6953 5.46651C19.8599 5.30333 20.0245 5.19455 20.2165 5.08576C20.4085 5.00417 20.628 4.94978 20.8474 4.94978C21.0669 4.94978 21.2863 5.00417 21.5058 5.08576C21.6978 5.16735 21.8624 5.30333 22.027 5.43932C22.1641 5.6025 22.2739 5.76568 22.3561 5.98325C22.4933 6.41839 22.4933 6.90793 22.3287 7.34308ZM32.5331 3.07321H31.0792C30.9695 3.07321 30.8872 3.12761 30.8049 3.182C30.7226 3.26359 30.6952 3.37238 30.6952 3.48116V3.64434C30.5032 3.42677 30.2837 3.26359 30.0368 3.1548C29.6528 2.96443 29.2139 2.88284 28.775 2.88284C27.8424 2.88284 26.9371 3.26359 26.2788 3.91631C25.9496 4.26986 25.6753 4.67781 25.4833 5.11296C25.2638 5.6025 25.1815 6.14643 25.1815 6.69036C25.1815 7.23429 25.2638 7.77822 25.4833 8.26776C25.6753 8.70291 25.9496 9.11085 26.2788 9.46441C26.9371 10.1171 27.8149 10.4979 28.7476 10.4979C29.1865 10.4979 29.6254 10.4163 30.0094 10.2259C30.2563 10.0899 30.5032 9.92675 30.6677 9.73638V9.92675C30.6677 10.0355 30.7226 10.1171 30.7775 10.1987C30.8598 10.2531 30.9421 10.3075 31.0518 10.3075H32.5056C32.6154 10.3075 32.6976 10.2531 32.7799 10.1987C32.8622 10.1171 32.8897 10.0355 32.8897 9.92675V3.48116C32.8897 3.37238 32.8622 3.29079 32.7799 3.2092C32.7251 3.10041 32.6428 3.07321 32.5331 3.07321ZM30.558 7.31588C30.4757 7.50626 30.366 7.69663 30.2289 7.85981C30.0917 7.99579 29.8997 8.13178 29.7077 8.24056C29.2962 8.43094 28.8299 8.43094 28.4184 8.24056C28.2264 8.15897 28.0344 8.02299 27.8972 7.85981C27.7601 7.69663 27.6229 7.50626 27.568 7.31588C27.4035 6.88073 27.4035 6.41839 27.568 5.98325C27.6503 5.79287 27.7601 5.6025 27.8972 5.43932C28.0344 5.27614 28.2264 5.16735 28.4184 5.05856C28.8299 4.86819 29.2962 4.86819 29.7077 5.05856C29.8997 5.14015 30.0643 5.27614 30.2289 5.41212C30.366 5.5753 30.4757 5.73848 30.558 5.95605C30.75 6.41839 30.75 6.90793 30.558 7.31588ZM46.9892 6.47279C46.7698 6.28241 46.5503 6.14643 46.276 6.03764C46.0017 5.92885 45.7274 5.84726 45.4256 5.79287L44.3284 5.5753C44.0541 5.52091 43.8346 5.43932 43.7249 5.35773C43.6426 5.30333 43.5878 5.19455 43.5878 5.08576C43.5878 4.97697 43.6426 4.86819 43.8072 4.7866C43.9992 4.67781 44.2187 4.62342 44.4107 4.65062C44.685 4.65062 44.9867 4.70501 45.2336 4.8138C45.4805 4.92258 45.7274 5.05856 45.9468 5.19455C46.276 5.38492 46.5503 5.35773 46.7423 5.14015L47.2635 4.54183C47.3732 4.43304 47.4281 4.29706 47.4281 4.16108C47.4281 4.02509 47.3458 3.86191 47.2361 3.78032C47.0166 3.58995 46.66 3.37238 46.1663 3.182C45.7 2.99162 45.0965 2.88284 44.3833 2.88284C43.9444 2.88284 43.5329 2.93723 43.1214 3.07321C42.7648 3.182 42.4357 3.34518 42.1614 3.56275C41.887 3.75313 41.695 4.02509 41.5304 4.32426C41.3933 4.62342 41.311 4.92258 41.311 5.24894C41.311 5.84726 41.503 6.3368 41.8596 6.69036C42.2162 7.04391 42.6825 7.28868 43.286 7.39747L44.4381 7.64224C44.685 7.69663 44.9319 7.75103 45.1788 7.85981C45.3159 7.9142 45.3982 8.02299 45.3982 8.18617C45.3982 8.32215 45.3433 8.43094 45.1788 8.53973C45.0416 8.64851 44.7947 8.70291 44.493 8.70291C44.1912 8.70291 43.8621 8.64851 43.5878 8.51253C43.3135 8.37655 43.0666 8.21337 42.8471 8.02299C42.7374 7.9414 42.6277 7.88701 42.518 7.83261C42.3808 7.80542 42.2162 7.83261 42.0516 7.9686L41.4207 8.45814C41.2561 8.59412 41.1464 8.81169 41.2013 9.00207C41.2287 9.21964 41.4207 9.41002 41.7225 9.65479C42.518 10.1987 43.478 10.4707 44.4381 10.4435C44.877 10.4435 45.3433 10.3891 45.7548 10.2531C46.1388 10.1443 46.468 9.98114 46.7698 9.73638C47.0441 9.5188 47.291 9.24684 47.4281 8.94768C47.5927 8.64851 47.6476 8.32215 47.6476 7.9686C47.6476 7.66944 47.5927 7.37027 47.4555 7.07111C47.3458 6.88073 47.1812 6.66316 46.9892 6.47279ZM53.2983 8.21337C53.2435 8.10458 53.1063 8.02299 52.9692 7.99579C52.832 7.99579 52.6949 8.05019 52.5851 8.10458C52.4206 8.21337 52.2011 8.29496 51.9817 8.29496C51.9268 8.29496 51.8445 8.29496 51.7622 8.26776C51.6799 8.26776 51.625 8.21337 51.5702 8.15897C51.5153 8.10458 51.4605 8.02299 51.4056 7.9414C51.3507 7.83262 51.3233 7.69663 51.3507 7.56065V4.94978H53.2435C53.3532 4.94978 53.4629 4.89538 53.5452 4.8138C53.6275 4.73221 53.6824 4.65062 53.6824 4.54183V3.42677C53.6824 3.31798 53.6275 3.2092 53.5452 3.1548C53.4629 3.07321 53.3806 3.04602 53.2709 3.04602H51.3782V1.27824C51.3782 1.16945 51.3507 1.06067 51.2685 1.00627C51.1862 0.924684 51.1039 0.897487 50.9941 0.897487H49.5403C49.4306 0.897487 49.3208 0.924684 49.266 1.00627C49.1837 1.08786 49.1563 1.19665 49.1563 1.27824V3.07321H48.3333C48.2236 3.07321 48.1139 3.12761 48.059 3.2092C47.9767 3.29079 47.9493 3.37238 47.9493 3.48116V4.59622C47.9493 4.70501 47.9767 4.7866 48.059 4.86819C48.1139 4.94978 48.2236 5.00417 48.3333 5.00417H49.1563V8.10458C49.1563 8.48533 49.2111 8.83889 49.3757 9.16525C49.5129 9.43721 49.7049 9.68198 49.9243 9.87236C50.1438 10.0627 50.4181 10.1987 50.7198 10.2803C51.0216 10.3619 51.3233 10.4163 51.6251 10.4163C52.0365 10.4163 52.4205 10.3619 52.8046 10.2259C53.1612 10.1171 53.4904 9.89956 53.7372 9.65479C53.9018 9.49161 53.9293 9.21964 53.7921 9.02926L53.2983 8.21337ZM61.2533 3.07321H59.7995C59.6898 3.07321 59.6075 3.12761 59.5252 3.182C59.4429 3.26359 59.4155 3.37238 59.4155 3.48116V3.64434C59.2234 3.42677 59.004 3.26359 58.7571 3.1548C58.3731 2.96443 57.9342 2.88284 57.4953 2.88284C56.5626 2.88284 55.6848 3.26359 55.0265 3.91631C54.6973 4.26986 54.423 4.67781 54.231 5.11296C54.0116 5.6025 53.9293 6.14643 53.9293 6.66316C53.9293 7.20709 54.0116 7.72383 54.231 8.24056C54.423 8.67571 54.6973 9.08366 55.0265 9.43721C55.6848 10.0899 56.5626 10.4707 57.4953 10.4707C57.9342 10.4707 58.3731 10.3891 58.7571 10.1987C59.004 10.0627 59.2509 9.89956 59.4155 9.70918V9.89956C59.4155 10.0083 59.4429 10.0899 59.5252 10.1715C59.6075 10.2531 59.6898 10.2803 59.7995 10.2803H61.2533C61.4728 10.2803 61.6374 10.1171 61.6374 9.89956V3.48116C61.6374 3.37238 61.6099 3.29079 61.5277 3.2092C61.4454 3.10041 61.3631 3.07321 61.2533 3.07321ZM59.2783 7.31588C59.196 7.50626 59.0863 7.69663 58.9491 7.85981C58.7846 7.99579 58.62 8.13178 58.4279 8.24056C58.2359 8.32215 57.989 8.37655 57.7696 8.37655C57.5502 8.37655 57.3307 8.32215 57.1387 8.24056C56.9467 8.15897 56.7547 8.02299 56.6175 7.85981C56.4803 7.69663 56.3432 7.50626 56.2883 7.31588C56.1237 6.88073 56.1237 6.41839 56.2883 5.98325C56.3706 5.79287 56.4803 5.6025 56.6175 5.43932C56.7821 5.27614 56.9467 5.16735 57.1387 5.05856C57.3307 4.97697 57.5502 4.92258 57.7696 4.92258C57.989 4.92258 58.2085 4.97697 58.4279 5.05856C58.62 5.14015 58.7846 5.27614 58.9491 5.41212C59.0863 5.5753 59.2234 5.73848 59.2783 5.95605C59.4703 6.41839 59.4703 6.90793 59.2783 7.31588ZM69.2083 8.10458L68.3854 7.47906C68.2208 7.34308 68.0837 7.31588 67.9465 7.37027C67.8368 7.42467 67.7271 7.50626 67.6448 7.58785C67.4528 7.80542 67.2607 7.99579 67.0139 8.15897C66.767 8.29496 66.4927 8.37655 66.1909 8.34935C65.8618 8.34935 65.56 8.26776 65.2857 8.07738C65.0114 7.88701 64.8194 7.61504 64.7097 7.31588C64.6274 7.09831 64.5999 6.88073 64.5999 6.66316C64.5999 6.44559 64.6274 6.20082 64.7097 5.98325C64.792 5.79287 64.9017 5.6025 65.0388 5.43932C65.2034 5.27614 65.368 5.16735 65.56 5.08576C65.752 5.00417 65.9989 4.94978 66.2184 4.94978C66.4927 4.94978 66.7944 5.00417 67.0139 5.14015C67.2607 5.30333 67.4528 5.49371 67.6448 5.71128C67.7271 5.79287 67.8368 5.87446 67.9465 5.92885C68.0837 5.98325 68.2208 5.95605 68.3854 5.82007L69.2083 5.19455C69.3181 5.11296 69.4004 5.03137 69.4278 4.92258C69.4827 4.7866 69.4552 4.65062 69.4004 4.54183C69.0712 4.05229 68.6323 3.64434 68.1111 3.34518C67.5625 3.04602 66.9041 2.88284 66.1635 2.88284C65.6423 2.88284 65.1211 2.99162 64.6548 3.182C64.1885 3.37238 63.777 3.64434 63.4204 3.9979C63.0638 4.35145 62.7895 4.7594 62.5975 5.19455C62.2134 6.14643 62.2134 7.23429 62.5975 8.18617C62.7895 8.64851 63.0638 9.05646 63.4204 9.38282C64.161 10.0899 65.1211 10.4707 66.1635 10.4707C66.9041 10.4707 67.5625 10.3075 68.1111 10.0083C68.6323 9.70918 69.0712 9.30123 69.4004 8.81169C69.4826 8.70291 69.4827 8.56692 69.4278 8.43094C69.3729 8.29496 69.2906 8.18617 69.2083 8.10458ZM76.9165 9.60039L74.6397 6.25521L76.5873 3.69873C76.6696 3.58995 76.697 3.42677 76.6696 3.29079C76.6421 3.182 76.5324 3.07321 76.313 3.07321H74.7768C74.6945 3.07321 74.6123 3.10041 74.53 3.12761C74.4202 3.182 74.3654 3.23639 74.3105 3.34518L72.7469 5.52091H72.3629V0.380752C72.3629 0.271966 72.3355 0.190376 72.2532 0.108786C72.1709 0.0271966 72.0886 0 71.9789 0H70.525C70.4153 0 70.333 0.0271966 70.2507 0.108786C70.1684 0.190376 70.141 0.271966 70.141 0.380752V9.84516C70.141 9.95395 70.1959 10.0627 70.2507 10.1171C70.333 10.1987 70.4153 10.2259 70.525 10.2259H71.9789C72.0886 10.2259 72.1709 10.1715 72.2532 10.1171C72.3355 10.0355 72.3629 9.95395 72.3629 9.84516V7.34308H72.7744L74.4751 9.95395C74.5848 10.1443 74.7768 10.2531 74.9689 10.2531H76.5873C76.8342 10.2531 76.9439 10.1443 76.9713 10.0355C77.0262 9.89956 76.9987 9.73638 76.9165 9.60039ZM40.7624 3.07321H39.1439C39.0342 3.07321 38.8971 3.10041 38.8148 3.2092C38.7325 3.29079 38.6776 3.37238 38.6776 3.48116L37.4706 7.88701H37.1689L35.8796 3.45397C35.8522 3.37238 35.8248 3.26359 35.7425 3.182C35.6602 3.10041 35.5505 3.04602 35.4408 3.04602H33.7675C33.548 3.04602 33.4109 3.12761 33.356 3.26359C33.3011 3.39957 33.3011 3.53556 33.356 3.64434L35.4133 9.87236C35.4407 9.95395 35.4956 10.0627 35.5779 10.1171C35.6602 10.1987 35.7699 10.2259 35.8796 10.2259H36.7574L36.6751 10.4163L36.4831 10.9874C36.4283 11.1506 36.3185 11.3138 36.154 11.4498C36.0168 11.5585 35.8522 11.6129 35.6602 11.6129C35.523 11.6129 35.3585 11.5857 35.2213 11.5314C35.0841 11.477 34.947 11.3954 34.8373 11.3138C34.7275 11.2322 34.5904 11.205 34.4807 11.205H34.4532C34.2886 11.205 34.1515 11.2866 34.0966 11.4226L33.5754 12.1841C33.356 12.5104 33.4931 12.728 33.6303 12.8368C33.9046 13.0816 34.2338 13.2719 34.5904 13.4079C34.9744 13.5439 35.3859 13.5983 35.8248 13.5983C36.5654 13.5983 37.1963 13.4079 37.6627 13C38.1564 12.5648 38.513 11.9937 38.705 11.3682L41.0915 3.67154C41.1464 3.53556 41.1464 3.39957 41.0915 3.26359C41.0915 3.1548 40.9818 3.07321 40.7624 3.07321Z" fill="white"/>
</svg>
