<svg width="89" height="58" viewBox="0 0 89 58" fill="none" xmlns="http://www.w3.org/2000/svg">
<path d="M20.3749 21.9077C20.2593 21.9389 20.1486 21.9725 20.0446 22.009C21.1646 17.9946 23.7452 13.6763 26.9537 9.85401C30.2948 5.87372 34.2984 2.45317 37.9994 0.487031L38.3268 0.313078L38.0373 0.0814543L25.1976 -10.1903L25.0557 -10.3038L24.9064 -10.2003C10.3784 -0.1244 0.756262 15.5865 0.756262 33.1882C0.756262 48.4832 10.6569 57.2437 21.777 57.2437C31.9499 57.2437 40.4632 48.7304 40.4632 38.5575C40.4632 28.3915 33.3575 21.5054 24.3449 21.5054C23.4023 21.5054 22.3987 21.5642 21.5394 21.6828C21.1099 21.742 20.7125 21.8167 20.3749 21.9077ZM67.9986 21.9077C67.8775 21.9404 67.7618 21.9757 67.6536 22.0141C68.6685 18.0011 71.2496 13.6808 74.4892 9.8548C77.859 5.87492 81.9211 2.4537 85.6231 0.487031L85.9537 0.311405L85.6593 0.0801258L72.5861 -10.1917L72.4446 -10.3029L72.2966 -10.2003C57.7667 -0.123064 48.38 15.5885 48.38 33.1882C48.38 40.8275 50.7901 46.8426 54.6023 50.9502C58.4142 55.0577 63.6156 57.2437 69.1672 57.2437C79.5756 57.2437 87.8535 48.7284 87.8535 38.5575C87.8535 28.3939 80.7501 21.5054 71.9686 21.5054C71.026 21.5054 70.0224 21.5642 69.1631 21.6828C68.7336 21.742 68.3362 21.8167 67.9986 21.9077Z" stroke="#C63B3A" stroke-width="0.487477"/>
</svg>
