<svg width="37" height="37" viewBox="0 0 37 37" fill="none" xmlns="http://www.w3.org/2000/svg">
<path d="M36.3785 18.7928C36.3785 28.534 28.4818 36.4308 18.7406 36.4308C8.99943 36.4308 1.10266 28.534 1.10266 18.7928C1.10266 9.05167 8.99943 1.1549 18.7406 1.1549C28.4818 1.1549 36.3785 9.05167 36.3785 18.7928Z" fill="white" stroke="white" stroke-width="1.13793"/>
<path d="M15.6584 24.8616C15.225 24.8616 14.7969 24.8309 14.3738 24.7695C13.9508 24.7081 13.5407 24.6186 13.1434 24.501C12.7462 24.3833 12.3619 24.2375 11.9904 24.0636C11.619 23.8897 11.2682 23.6902 10.938 23.4652C11.0515 23.4856 11.1676 23.4984 11.2862 23.5035C11.4049 23.5086 11.5313 23.5112 11.6654 23.5112C12.3876 23.5112 13.0738 23.3961 13.7238 23.1659C14.3738 22.9358 14.9671 22.6161 15.5036 22.2069C14.8226 22.1966 14.2191 21.992 13.6928 21.5931C13.1666 21.1941 12.8055 20.6928 12.6095 20.0893C12.7023 20.1097 12.7978 20.1251 12.8958 20.1353C12.9938 20.1455 13.0944 20.1506 13.1976 20.1506C13.3317 20.1506 13.4684 20.1404 13.6077 20.1199C13.747 20.0995 13.8786 20.0739 14.0024 20.0432C13.3008 19.9 12.7152 19.5496 12.2458 18.9921C11.7763 18.4345 11.5416 17.7824 11.5416 17.0356C11.5416 17.0356 11.5416 17.033 11.5416 17.0279C11.5416 17.0228 11.5416 17.0151 11.5416 17.0049C11.7479 17.1174 11.9672 17.2069 12.1993 17.2734C12.4315 17.3399 12.6765 17.3783 12.9345 17.3885C12.5115 17.1123 12.1761 16.7517 11.9285 16.3067C11.6809 15.8617 11.5571 15.3732 11.5571 14.8412C11.5571 14.5548 11.5906 14.2837 11.6577 14.028C11.7247 13.7722 11.8253 13.5318 11.9595 13.3067C12.3412 13.7671 12.7694 14.1865 13.244 14.565C13.7083 14.9436 14.2113 15.2684 14.753 15.5394C15.2947 15.8105 15.8647 16.0279 16.4632 16.1916C17.0719 16.3553 17.6962 16.4474 18.3359 16.4678C18.3152 16.3655 18.2972 16.2556 18.2817 16.1379C18.2662 16.0203 18.2585 15.9001 18.2585 15.7773C18.2585 15.3579 18.3359 14.964 18.4906 14.5957C18.6557 14.2172 18.8776 13.8899 19.1561 13.6136C19.4347 13.3374 19.7649 13.1175 20.1467 12.9538C20.5181 12.8004 20.9153 12.7236 21.3384 12.7236C21.782 12.7236 22.1973 12.8106 22.5842 12.9845C22.9712 13.1584 23.3091 13.3937 23.598 13.6904C23.9488 13.629 24.2893 13.5344 24.6194 13.4065C24.9496 13.2786 25.2643 13.1277 25.5635 12.9538C25.4397 13.3119 25.2591 13.6367 25.0218 13.9282C24.7845 14.2198 24.5111 14.4627 24.2016 14.6571C24.5111 14.6162 24.8155 14.5548 25.1147 14.473C25.4139 14.3911 25.6976 14.2888 25.9659 14.1661C25.7595 14.473 25.5274 14.7594 25.2695 15.0254C25.0115 15.2914 24.7329 15.5318 24.4337 15.7466C24.444 15.808 24.4492 15.8745 24.4492 15.9461C24.4492 16.0177 24.4492 16.0842 24.4492 16.1456C24.4492 17.1584 24.2583 18.1813 23.8765 19.2146C23.4948 20.2478 22.9325 21.1839 22.1896 22.0227C21.4467 22.8616 20.5284 23.547 19.4347 24.079C18.341 24.6007 17.0823 24.8616 15.6584 24.8616Z" fill="#0C111A"/>
</svg>
