<svg width="77" height="16" viewBox="0 0 77 16" fill="none" xmlns="http://www.w3.org/2000/svg">
<path d="M0 6.31622C0 9.64852 0.064915 12.3533 0.173107 12.31C0.25966 12.2668 1.51468 11.6392 2.98609 10.8819L5.62597 9.54033V8.13384V6.74899L4.4575 7.26831C3.80835 7.5496 3.22411 7.72271 3.1592 7.6578C3.09428 7.57124 3.02937 5.88345 3.02937 3.87109V0.235852H1.51468H0V6.31622Z" fill="white"/>
<path d="M13.1992 6.40242V12.5693H13.8484H14.4759L14.5408 9.30195C14.6057 6.0562 14.6057 6.01293 15.1683 5.6018C15.7958 5.12575 17.2239 4.86609 18.0246 5.08248C18.8685 5.27722 19.0416 6.0562 19.0416 9.43178V12.5693H19.7989H20.5563V9.25867C20.5563 6.46733 20.4913 5.83982 20.1235 5.0392C19.4094 3.4596 17.7649 3.07011 15.8824 4.0222C15.2981 4.32514 14.7572 4.56316 14.6706 4.56316C14.5624 4.56316 14.4975 3.58943 14.4975 2.39933V0.235495H13.8484H13.1992V6.40242Z" fill="white"/>
<path d="M47.8203 6.38078V12.5693H48.5777H49.335V9.2154V5.86146L50.2005 5.42869C50.6766 5.19067 51.4772 4.99592 52.0181 4.99592C53.5112 4.99592 53.6627 5.34214 53.6627 8.91246C53.6627 10.557 53.7276 12.0284 53.7925 12.2231C53.879 12.4395 54.182 12.5693 54.5498 12.5693H55.1773V9.2154C55.1773 5.53688 54.9826 4.64971 54.0089 4.0222C52.8188 3.24322 51.6936 3.37305 49.5081 4.51988C49.4215 4.56316 49.3134 3.63271 49.2917 2.46424L49.2268 0.343687L48.5344 0.278771L47.8203 0.213857V6.38078Z" fill="white"/>
<path d="M8.87199 4.23881C8.87199 6.31609 8.85035 8.02552 8.80708 8.02552C8.7638 8.02552 8.22284 7.7875 7.61697 7.48456C6.98946 7.18162 6.4485 6.9436 6.38358 6.9436C6.31867 6.9436 6.27539 7.5062 6.27539 8.22026V9.47528L7.31403 9.92969C7.87663 10.1677 9.13165 10.8169 10.127 11.3578L11.9014 12.3315V6.38101V0.452106H10.3867H8.87199V4.23881Z" fill="#0094DB"/>
<path d="M72.2726 2.50744C72.2726 3.54608 72.2077 3.69755 71.8615 3.69755C71.6235 3.69755 71.4071 3.82738 71.3638 3.95721C71.2773 4.17359 71.1474 4.17359 70.693 3.97885C69.7193 3.52444 68.0099 3.39461 66.9712 3.69755C65.7595 4.04376 64.6992 5.14732 64.6992 6.0994C64.6992 7.63572 65.5648 8.32815 68.2046 8.89075C69.9573 9.23696 70.5848 10.1458 69.676 11.0546C69.0485 11.6821 67.0362 11.6605 65.7162 10.968L64.6992 10.4703V11.271C64.6992 12.2663 65.2618 12.5693 67.3175 12.7207C69.0485 12.8722 70.0439 12.5693 70.8878 11.6821C71.3855 11.1628 71.5153 10.8382 71.5153 10.0592C71.5153 8.73928 70.6714 7.9603 68.8754 7.59245C67.0578 7.24623 66.4303 6.9433 66.3005 6.40234C65.911 4.86602 68.2479 4.26015 70.3685 5.29879C71.1907 5.70991 71.1907 5.70991 71.1907 5.32042C71.1907 5.12568 71.3855 4.99585 71.71 4.99585H72.2294L72.3159 7.9603C72.4241 12.0067 72.8785 12.7856 75.1505 12.7856C76.6652 12.7856 77.0763 12.5909 76.9898 11.9418C76.9249 11.4224 76.86 11.3792 76.0161 11.4441C74.047 11.5955 73.7873 11.1628 73.7873 7.59245V5.01749L75.3669 4.95257C76.86 4.88766 76.9249 4.86602 76.9249 4.3467C76.9249 3.82738 76.86 3.80574 75.3669 3.74083L73.7873 3.67591V2.50744V1.31734H73.03H72.2726V2.50744Z" fill="white"/>
<path d="M23.9111 3.89238C22.18 4.67136 21.2279 6.66208 21.4876 8.91247C21.7905 11.336 23.0023 12.6126 25.2094 12.7424C26.9621 12.8506 27.9791 12.3962 28.8013 11.0979C30.3809 8.60953 29.5587 4.97429 27.1785 3.89238C26.0533 3.3947 25.0146 3.37306 23.9111 3.89238ZM27.3083 5.62344C28.3902 6.83519 28.3253 9.79964 27.1568 10.9681C26.7457 11.3792 26.3995 11.4874 25.5989 11.4874C24.2789 11.4874 23.7163 11.0979 23.2403 9.86455C22.7859 8.65281 22.9374 6.68372 23.5432 5.8831C24.4953 4.5848 26.2697 4.45497 27.3083 5.62344Z" fill="white"/>
<path d="M32.6947 3.71943C30.8771 4.43349 30.0332 5.83998 30.0332 8.11201C30.0332 9.86471 30.2929 10.687 31.1151 11.5525C32.1538 12.6561 33.8848 12.7859 35.4211 11.9204C36.265 11.4227 36.4381 11.6174 36.2434 12.7859C35.9621 14.3871 34.5556 14.9714 32.2836 14.452L30.9204 14.1275L30.9853 14.9281C31.0502 15.7071 31.0502 15.7071 32.3052 15.9018C34.7504 16.2697 36.5031 15.5989 37.3253 13.976C37.7148 13.197 37.7581 12.6777 37.7581 8.45822V3.80598L37.1306 3.74107C36.7844 3.69779 36.4381 3.76271 36.3516 3.89254C36.265 4.06564 35.9837 4.044 35.4211 3.80598C34.534 3.43813 33.4737 3.39486 32.6947 3.71943ZM35.9188 5.21247C36.3083 5.42886 36.3516 5.68852 36.3516 7.80907C36.3516 10.1027 36.33 10.1893 35.789 10.5355C35.0749 11.0115 33.214 11.1846 32.5649 10.8384C31.8725 10.4706 31.483 9.45358 31.5046 8.02546C31.5046 5.81835 32.6514 4.64988 34.5773 4.8879C35.0966 4.93118 35.7024 5.08264 35.9188 5.21247Z" fill="white"/>
<path d="M41.4589 3.69755C39.8793 4.17359 38.7541 6.05613 38.7324 8.19832C38.7324 11.1195 40.2038 12.7856 42.7572 12.7856C44.4449 12.7856 45.6567 12.0716 46.3058 10.7084C47.1714 8.95566 46.8684 6.01285 45.7 4.69291C44.8128 3.69755 42.9303 3.26478 41.4589 3.69755ZM44.2718 5.23387C44.8993 5.75319 45.2888 6.81347 45.2888 8.11177C45.3105 9.66973 44.8128 10.8815 44.0122 11.2493C43.2332 11.5955 41.9349 11.5523 41.3507 11.1411C39.7494 10.0159 39.9442 5.83974 41.632 5.0824C42.3893 4.73619 43.7742 4.82274 44.2718 5.23387Z" fill="white"/>
<path d="M58.6401 3.80603C57.6664 4.26043 57.1687 4.71484 56.6926 5.64528C55.4593 8.09042 56.3031 11.3578 58.4453 12.483C59.2243 12.8725 61.3016 12.8725 62.0806 12.4614C63.6169 11.6824 64.3959 9.92967 64.2011 7.67929C64.0064 5.21252 62.7081 3.76275 60.5443 3.56801C59.7869 3.50309 59.1594 3.58964 58.6401 3.80603ZM61.3232 5.08269C62.2753 5.47218 62.7514 6.53246 62.7514 8.24188C62.7514 9.67001 62.3835 10.6221 61.6262 11.1414C61.0419 11.5525 59.3325 11.5958 58.8348 11.2063C57.0821 9.86476 57.3201 5.75348 59.181 4.9745C59.8302 4.71484 60.5226 4.73647 61.3232 5.08269Z" fill="white"/>
</svg>
